<svg width="800px" height="800px" viewBox="0 0 80 80" fill="none" xmlns="http://www.w3.org/2000/svg">
    <g id="Frame 2585">
        <g id="Group 74">
            <path id="Vector 30" d="M19.2014 38.3999H14.0014C13.1177 38.3999 12.4014 39.1162 12.4014 39.9999V57.1999C12.4014 58.0836 13.1177 58.7999 14.0014 58.7999H19.2014M19.2014 58.7999V35.9999C19.2014 35.1162 19.9177 34.3999 20.8014 34.3999H28.0014V45.1999M19.2014 58.7999V61.1999C19.2014 62.0836 19.9177 62.7999 20.8014 62.7999H28.0014V51.1999M28.0014 45.1999H53.2014M28.0014 45.1999V51.1999M53.2014 45.1999V51.1999M53.2014 45.1999V34.3999H59.6014C60.485 34.3999 61.2014 35.1162 61.2014 35.9999V38.3999M53.2014 51.1999H28.0014M53.2014 51.1999V62.7999H59.6014C60.485 62.7999 61.2014 62.0836 61.2014 61.1999V58.7999M61.2014 38.3999H66.0014C66.885 38.3999 67.6014 39.1162 67.6014 39.9999V57.1999C67.6014 58.0836 66.885 58.7999 66.0014 58.7999H61.2014M61.2014 38.3999V58.7999" stroke="white" stroke-width="2.4" stroke-linecap="round" stroke-linejoin="round"/>
        </g>
        <g id="Group 73">
            <ellipse id="Ellipse 41" cx="33.6343" cy="21.6001" rx="5.63429" ry="4" stroke="white" stroke-width="2.4"/>
            <ellipse id="Ellipse 42" cx="45.5659" cy="21.6001" rx="5.63429" ry="4" stroke="white" stroke-width="2.4"/>
        </g>
        <rect id="Rectangle 18" x="28.7998" y="45.6001" width="25.6" height="4.8" fill="white"/>
    </g>
</svg>
